<?xml version="1.0" encoding="utf-8"?>
<!-- Generator: Adobe Illustrator 28.0.0, SVG Export Plug-In . SVG Version: 6.00 Build 0)  -->
<svg version="1.1" id="Layer_1" xmlns="http://www.w3.org/2000/svg" xmlns:xlink="http://www.w3.org/1999/xlink" x="0px" y="0px"
	 viewBox="0 0 3200 500" style="enable-background:new 0 0 3200 500;" xml:space="preserve">
<style type="text/css">
	.st0{fill:#FFFFFF;}
	.st1{fill:#0CE2F2;}
</style>
<g>
	<path class="st1" d="M392.8,285.2v111.1H358c-159.7,0-57.1-181.8-216.8-181.8v0.1H100V103.4h41.1c159.7,0,57.1,181.8,216.8,181.8
		H392.8z"/>
	<g>
		<path class="st1" d="M960.6,143.7c-1,1-2.2,1.5-3.6,1.5H814.6c-1.4,0-2.1,0.7-2.1,2.1v78.1c0,1.4,0.7,2.1,2.1,2.1h95.7
			c1.4,0,2.6,0.5,3.6,1.5c1,1,1.5,2.1,1.5,3.5v31.8c0,1.4-0.5,2.6-1.5,3.6c-1,1-2.2,1.5-3.6,1.5h-95.7c-1.4,0-2.1,0.7-2.1,2.1V352
			c0,1.4,0.7,2.1,2.1,2.1h142.4c1.4,0,2.6,0.5,3.6,1.5c1,1,1.5,2.2,1.5,3.6v31.8c0,1.4-0.5,2.5-1.5,3.5c-1,1-2.2,1.5-3.6,1.5h-188
			c-1.4,0-2.6-0.5-3.6-1.5c-1-1-1.5-2.1-1.5-3.5V108.4c0-1.4,0.5-2.6,1.5-3.6c1-1,2.2-1.5,3.6-1.5h188c1.4,0,2.6,0.5,3.6,1.5
			c1,1,1.5,2.2,1.5,3.6v31.8C962.1,141.6,961.6,142.7,960.6,143.7z"/>
		<path class="st1" d="M1186.2,104.8c1-1,2.2-1.5,3.6-1.5h38.4c1.4,0,2.6,0.5,3.6,1.5c1,1,1.5,2.2,1.5,3.6v282.4
			c0,1.4-0.5,2.5-1.5,3.5c-1,1-2.2,1.5-3.6,1.5h-37.2c-2.8,0-4.7-1.1-5.8-3.3l-120.3-197.2c-0.6-0.8-1.1-1.2-1.7-1.1
			c-0.6,0.1-0.8,0.8-0.8,1.9l0.8,194.7c0,1.4-0.5,2.5-1.5,3.5c-1,1-2.2,1.5-3.6,1.5h-38.4c-1.4,0-2.6-0.5-3.6-1.5
			c-1-1-1.5-2.1-1.5-3.5V108.4c0-1.4,0.5-2.6,1.5-3.6c1-1,2.2-1.5,3.6-1.5h37.2c2.8,0,4.7,1.1,5.8,3.4l119.9,197.2
			c0.5,0.8,1.1,1.2,1.7,1c0.6-0.1,0.8-0.7,0.8-1.9l-0.4-194.7C1184.8,107,1185.3,105.8,1186.2,104.8z"/>
		<path d="M1599.4,387.3c-16.1-8.5-28.6-20.5-37.4-36.1c-8.8-15.6-13.2-33.6-13.2-53.9V202c0-20,4.5-37.8,13.4-53.2
			c8.9-15.5,21.4-27.4,37.4-35.9c16-8.5,34.5-12.7,55.4-12.7c21.1,0,39.7,4.2,55.8,12.7c16,8.5,28.5,20.5,37.4,35.9
			c8.9,15.4,13.4,33.2,13.4,53.2v95.3c0,20.3-4.5,38.3-13.4,53.9c-8.9,15.6-21.4,27.6-37.4,36.1c-16,8.5-34.6,12.7-55.8,12.7
			C1634.1,400,1615.6,395.8,1599.4,387.3z M1697.2,341.9c10.6-10.9,15.9-25.2,15.9-43v-97.3c0-18.1-5.3-32.6-15.9-43.4
			c-10.6-10.8-24.6-16.3-42.2-16.3c-17.3,0-31.2,5.4-41.8,16.3c-10.6,10.9-15.9,25.4-15.9,43.4v97.3c0,17.8,5.3,32.2,15.9,43
			c10.6,10.8,24.5,16.3,41.8,16.3C1672.5,358.2,1686.6,352.8,1697.2,341.9z"/>
		<polygon points="812.5,145.6 812.5,227.5 915.3,227.5 915.3,269.7 812.5,269.7 812.5,353.6 962.1,353.6 962.1,395.8 764,395.8 
			764,103.3 962.1,103.3 962.1,145.6 		"/>
		<polygon points="2950.4,145.6 2950.4,227.5 3053.2,227.5 3053.2,269.7 2950.4,269.7 2950.4,353.6 3100,353.6 3100,395.8 
			2901.9,395.8 2901.9,103.3 3100,103.3 3100,145.6 		"/>
		<polygon points="713.9,103.3 713.9,145.6 631.4,145.6 631.4,395.8 583,395.8 583,145.6 500.3,145.6 500.3,103.3 		"/>
		<path d="M1969.2,266.1c20-6.2,60.7-26.4,56.4-83.9c-4.3-57.3-46.6-78.9-86.3-78.9h-119.9v292.5h48.5V270.1h53.5l58.7,125.7h49.5
			L1969.2,266.1z M1867.9,145.1h64.7c31.7,0,44.8,22.3,44.8,41.6s-9,45.7-44.8,45.7h-64.7V145.1z"/>
		<polygon points="1233.3,103.3 1233.3,395.8 1186,395.8 1063.2,191.6 1063.2,395.8 1014.8,395.8 1014.8,103.3 1061.5,103.3 
			1184.8,308.6 1184.8,103.3 		"/>
		<path d="M1499.2,317.2c0,25.1-9.3,45-27.8,59.8c-18.6,14.8-43.8,22.1-75.8,22.1c-21.8,0-40.7-3.5-56.9-10.4
			c-16.2-7-28.6-16.7-37.4-29.3c-8.8-12.6-13.2-27.3-13.2-44.3v-15.5h47.2v13c0,12.8,5.8,23.4,17.2,32c11.4,8.4,27,12.7,46.7,12.7
			c17.1,0,29.9-3.6,38.4-10.8c8.7-7.3,13-16.6,13-28c0-7.7-2.4-14.4-7.2-19.8s-11.4-10.4-20.2-14.8c-8.9-4.5-22-10-39.6-16.7
			c-19.7-7.3-35.8-14.1-48-20.5c-12.2-6.3-22.5-15-30.7-26.1c-8.3-11-12.3-24.7-12.3-41.2c0-24.5,8.9-43.8,26.8-58
			c17.8-14.2,41.6-21.3,71.4-21.3c20.9,0,39.3,3.7,55.4,11c15.9,7.2,28.4,17.3,37.4,30.2c8.9,12.9,13.4,27.9,13.4,44.9v12.2h-47.6
			v-9.7c0-13-5.4-24.1-16.2-33.2c-10.7-9-25.5-13.5-44.4-13.5c-15.3,0-27.2,3.1-35.8,9.6c-8.4,6.3-12.7,15.5-12.7,27.1
			c0,8.4,2.2,15.2,6.7,20.5c4.4,5.2,11.1,10,20,14.3c9,4.4,22.7,9.9,41.4,16.6c19.7,7.5,35.5,14.3,47.4,20.4
			c11.9,6.1,22,14.7,30.5,25.7C1495,287.1,1499.2,300.9,1499.2,317.2z"/>
		<polygon points="2405.5,103.3 2326.9,395.8 2281,395.8 2231.6,185.7 2182.2,395.8 2136.3,395.8 2057.6,103.3 2109,103.3 
			2159,303.3 2206.8,103.3 2256.4,103.3 2304.1,303.3 2354.1,103.3 		"/>
		<path d="M2629.6,345.3l-12.2-38.1l-65.4-203.9h-60.2l-65.4,203.9l-12.2,38.1l-16.3,50.5h52l15.5-50.5h113.1l15.5,50.5h52
			L2629.6,345.3z M2476.9,307.2l44.9-146.9l44.9,146.9H2476.9z"/>
		<polygon points="2867,103.3 2776.2,395.8 2724.8,395.8 2634.2,103.3 2686.1,103.3 2750.6,327.7 2814.9,103.3 		"/>
	</g>
</g>
</svg>
